<?xml version="1.0" encoding="UTF-8" standalone="no"?>
<!-- Created with Inkscape (http://www.inkscape.org/) -->

<svg
   width="346"
   height="192"
   viewBox="0 0 91.545823 50.800156"
   version="1.1"
   id="svg5"
   inkscape:version="1.1.2 (0a00cf5339, 2022-02-04, custom)"
   sodipodi:docname="logo_lit.svg"
   inkscape:export-filename="/home/daniel/Nextcloud-FAW/LNF/LNF2022/Stationsposter/keyboard_replay_lndf.png"
   inkscape:export-xdpi="96"
   inkscape:export-ydpi="96"
   xmlns:inkscape="http://www.inkscape.org/namespaces/inkscape"
   xmlns:sodipodi="http://sodipodi.sourceforge.net/DTD/sodipodi-0.dtd"
   xmlns:xlink="http://www.w3.org/1999/xlink"
   xmlns="http://www.w3.org/2000/svg"
   xmlns:svg="http://www.w3.org/2000/svg">
  <sodipodi:namedview
     id="namedview7"
     pagecolor="#ffffff"
     bordercolor="#666666"
     borderopacity="1.0"
     inkscape:pageshadow="2"
     inkscape:pageopacity="0.0"
     inkscape:pagecheckerboard="0"
     inkscape:document-units="mm"
     showgrid="false"
     inkscape:zoom="0.57979288"
     inkscape:cx="509.66476"
     inkscape:cy="251.81406"
     inkscape:window-width="2560"
     inkscape:window-height="1367"
     inkscape:window-x="1920"
     inkscape:window-y="0"
     inkscape:window-maximized="1"
     inkscape:current-layer="layer1"
     showguides="true"
     inkscape:guide-bbox="true"
     inkscape:snap-others="true"
     inkscape:snap-to-guides="true"
     inkscape:lockguides="true"
     scale-x="1"
     inkscape:snap-grids="true"
     units="px" />
  <defs
     id="defs2">
    <rect
       x="811.44214"
       y="1076.8684"
       width="211.64568"
       height="114.18742"
       id="rect82423" />
    <rect
       x="75.325737"
       y="1043.9327"
       width="117.14075"
       height="51.131168"
       id="rect216715" />
    <rect
       x="75.590553"
       y="1023.7111"
       width="469.71744"
       height="322.15485"
       id="rect137465" />
    <rect
       x="602.41187"
       y="157.96193"
       width="228.3811"
       height="22.713898"
       id="rect68814" />
    <rect
       x="342.16501"
       y="564.84875"
       width="841.2561"
       height="123.28933"
       id="rect26270" />
    <rect
       x="46.824043"
       y="339.36053"
       width="233.5854"
       height="126.24575"
       id="rect20934" />
    <rect
       x="-1853.052"
       y="195.11935"
       width="1204.4501"
       height="1050.7006"
       id="rect10094" />
    <rect
       x="-1761.8187"
       y="290.08878"
       width="1252.6501"
       height="820.72168"
       id="rect8922" />
    <rect
       x="-1951.5123"
       y="179.07204"
       width="1328.2354"
       height="761.52167"
       id="rect5272" />
    <rect
       x="75.590553"
       y="1023.7111"
       width="469.02032"
       height="120.77393"
       id="rect154677" />
    <rect
       x="75.590553"
       y="1023.7111"
       width="469.71744"
       height="322.15485"
       id="rect171995" />
    <rect
       x="75.590553"
       y="1023.7111"
       width="703.45355"
       height="130.96448"
       id="rect171995-9" />
    <rect
       x="75.590553"
       y="1023.7111"
       width="972.72803"
       height="73.344223"
       id="rect189780" />
    <rect
       x="75.590553"
       y="1023.7111"
       width="945.18976"
       height="90.865059"
       id="rect429789" />
    <rect
       x="75.590553"
       y="1023.7111"
       width="469.44382"
       height="100.13638"
       id="rect443541" />
    <style
       id="style12636">.cls-1{isolation:isolate;}.cls-2{mix-blend-mode:multiply;opacity:0.4;}.cls-3{fill:#aa0132;}.cls-4{fill:url(#linear-gradient);}.cls-5{fill:#fff;}.cls-6{fill:none;stroke:#aa002c;stroke-miterlimit:25.74;stroke-width:0.6px;}</style>
    <linearGradient
       id="linear-gradient"
       x1="10.59"
       y1="157"
       x2="495.82001"
       y2="157"
       gradientUnits="userSpaceOnUse">
      <stop
         offset="0.05"
         stop-color="#fd0"
         id="stop12638" />
      <stop
         offset="0.35"
         stop-color="#ffe019"
         id="stop12640" />
      <stop
         offset="0.53"
         stop-color="#ffe959"
         id="stop12642" />
      <stop
         offset="0.71"
         stop-color="#ffe019"
         id="stop12644" />
      <stop
         offset="0.98"
         stop-color="#fd0"
         id="stop12646" />
    </linearGradient>
    <pattern
       id="EMFhbasepattern"
       patternUnits="userSpaceOnUse"
       width="6"
       height="6"
       x="0"
       y="0" />
    <clipPath
       clipPathUnits="userSpaceOnUse"
       id="clipEmfPath1">
      <path
         d="M 0,793.67412 H 1122.4717 V 0 H 0 Z"
         id="path9167" />
    </clipPath>
    <pattern
       id="EMFhbasepattern-7"
       patternUnits="userSpaceOnUse"
       width="6"
       height="6"
       x="0"
       y="0" />
  </defs>
  <g
     inkscape:label="Ebene 1"
     inkscape:groupmode="layer"
     id="layer1">
    <text
       xml:space="preserve"
       transform="scale(0.26458333)"
       id="text5270"
       style="font-style:normal;font-variant:normal;font-weight:normal;font-stretch:normal;font-size:21.3333px;line-height:1.25;font-family:arial;-inkscape-font-specification:arial;letter-spacing:0px;word-spacing:0px;white-space:pre;shape-inside:url(#rect5272);fill:#000000;fill-opacity:1;stroke:none" />
    <text
       xml:space="preserve"
       transform="scale(0.26458333)"
       id="text8920"
       style="font-style:normal;font-variant:normal;font-weight:normal;font-stretch:normal;font-size:21.3333px;line-height:1.25;font-family:arial;-inkscape-font-specification:arial;letter-spacing:0px;word-spacing:0px;white-space:pre;shape-inside:url(#rect8922);fill:#000000;fill-opacity:1;stroke:none" />
    <text
       xml:space="preserve"
       transform="scale(0.26458333)"
       id="text20932"
       style="font-style:normal;font-variant:normal;font-weight:normal;font-stretch:normal;font-size:21.3333px;line-height:1.25;font-family:arial;-inkscape-font-specification:arial;letter-spacing:0px;word-spacing:0px;white-space:pre;shape-inside:url(#rect20934);fill:#000000;fill-opacity:1;stroke:none" />
    <text
       xml:space="preserve"
       transform="scale(0.26458333)"
       id="text68812"
       style="font-style:normal;font-variant:normal;font-weight:normal;font-stretch:normal;font-size:21.3333px;line-height:1.25;font-family:arial;-inkscape-font-specification:arial;letter-spacing:0px;word-spacing:0px;white-space:pre;shape-inside:url(#rect68814);fill:#000000;fill-opacity:1;stroke:none" />
    <g
       id="g116269"
       transform="matrix(2.5575312,-0.84385551,0.84385551,2.5575312,-156.26158,172.48744)"
       style="display:none">
      <g
         id="g115362"
         transform="translate(92.246388,78.116662)">
        <text
           xml:space="preserve"
           style="font-style:normal;font-variant:normal;font-weight:normal;font-stretch:normal;font-size:2.11667px;line-height:1.25;font-family:arial;-inkscape-font-specification:arial;letter-spacing:0px;word-spacing:0px;fill:#000000;fill-opacity:1;stroke:none;stroke-width:0.264583"
           id="text97945"
           transform="translate(36.205043,3.8878423)"><textPath
             xlink:href="#path96227-3"
             id="textPath108280"><tspan
               id="tspan97943"
               style="font-size:2.11667px;stroke-width:0.264583" /></textPath></text>
        <path
           style="fill:none;stroke:none;stroke-width:0.690309;stroke-miterlimit:4;stroke-dasharray:none;stroke-opacity:1;paint-order:normal"
           id="path96227-3"
           sodipodi:type="arc"
           sodipodi:cx="-57.320976"
           sodipodi:cy="-213.37529"
           sodipodi:rx="9.9268866"
           sodipodi:ry="9.1194382"
           sodipodi:start="5.5227049"
           sodipodi:end="1.0643011"
           sodipodi:arc-type="slice"
           d="m -50.128898,-219.66104 a 9.9268866,9.1194382 0 0 1 2.620488,7.66577 9.9268866,9.1194382 0 0 1 -4.99688,6.59447 l -4.815686,-7.97449 z"
           transform="matrix(-0.99847491,0.05520735,-0.07728353,-0.99700916,0,0)" />
      </g>
    </g>
    <text
       xml:space="preserve"
       style="font-size:5.64444px;line-height:1.25;font-family:arial;-inkscape-font-specification:arial;text-align:center;letter-spacing:0px;word-spacing:0px;text-anchor:middle;stroke-width:0.264583"
       x="20.299997"
       y="366.39999"
       id="text71827"><tspan
         sodipodi:role="line"
         id="tspan71825"
         style="stroke-width:0.264583"
         x="20.299997"
         y="366.39999" /></text>
    <g
       id="g6173"
       transform="matrix(0.07897167,0,0,0.07897167,1.8311714,7.2549243)"
       style="fill:#046e98;fill-opacity:1">
      <path
         style="fill:#046e98;fill-opacity:1;fill-rule:nonzero;stroke:none"
         d="m 734.87456,281.99791 c 79.43941,0 129.67904,-43.91967 129.67904,-133.43901 V 8.8799342 H 799.51408 V 151.03888 c 0,46.87965 -24.07982,71.03947 -63.83953,71.03947 -39.67971,0 -63.75953,-24.95981 -63.75953,-73.11945 V 8.8799342 H 606.79551 V 150.63888 c 0,87.03936 48.63963,131.35903 128.07905,131.35903 z M 147.67891,172.15872 c 0,34.23975 -15.19989,49.03964 -39.67971,49.03964 -20.719847,0 -37.199724,-10.95992 -54.079599,-29.59978 l -41.039696,45.67966 c 20.319849,24.07982 50.719624,44.31967 96.799285,44.31967 32.07976,0 58.71956,-9.27993 76.87943,-27.43979 17.75987,-17.75987 27.91979,-43.91968 27.91979,-79.03942 V 8.8799342 h -66.7995 z M 558.55586,8.7999348 410.63696,135.519 262.79805,8.7999348 V 86.959356 L 410.63696,213.67842 558.55586,86.959356 Z m 0,204.8784852 H 262.79805 v 64.31952 h 295.75781 z"
         id="path6159" />
      <path
         style="fill:#046e98;fill-opacity:1;fill-rule:nonzero;stroke:none"
         d="m 281.43792,493.19635 c 11.03991,0 18.79986,-5.67996 18.79986,-15.91989 v -0.08 c 0,-8.95994 -5.83996,-12.71991 -16.23988,-15.43989 -8.87994,-2.23998 -11.03992,-3.35998 -11.03992,-6.71995 v -0.16 c 0,-2.47998 2.23998,-4.47997 6.55995,-4.47997 4.31997,0 8.79993,1.91999 13.3599,5.03997 l 5.83996,-8.47994 c -5.19996,-4.15997 -11.59992,-6.55995 -19.03986,-6.55995 -10.47992,0 -17.99987,6.15995 -17.99987,15.51988 v 0.16 c 0,10.15993 6.71995,13.03991 17.03988,15.67989 8.55993,2.15998 10.31992,3.67997 10.31992,6.47995 v 0.16 c 0,3.03997 -2.79998,4.87996 -7.35995,4.87996 -5.91995,0 -10.71992,-2.47998 -15.35988,-6.23995 l -6.63995,7.99994 c 6.15995,5.43996 13.99989,8.15994 21.75984,8.15994 z m 41.67969,-13.2799 -8.95994,-26.71981 h -11.83991 l 15.43989,39.43971 c -0.96,1.99999 -1.99999,2.55998 -3.91997,2.55998 -1.43999,0 -3.27998,-0.63999 -4.71997,-1.51999 l -3.75997,8.07994 c 2.87998,1.67999 5.83995,2.71998 9.91992,2.71998 6.63996,0 9.91993,-3.03997 12.87991,-11.03992 l 15.11989,-40.2397 h -11.59992 z m 38.31971,13.2799 c 8.47994,0 15.03989,-3.91997 15.03989,-12.63991 v -0.16 c 0,-7.19995 -6.39995,-9.83993 -11.91991,-11.67991 -4.23997,-1.43999 -7.91994,-2.47998 -7.91994,-4.63997 v -0.16 c 0,-1.59998 1.35999,-2.71998 4.07997,-2.71998 2.87998,0 6.71995,1.35999 10.63992,3.67998 l 4.23997,-7.75995 c -4.23997,-2.79998 -9.67993,-4.47996 -14.63989,-4.47996 -7.91995,0 -14.3999,4.39996 -14.3999,12.39991 v 0.15999 c 0,7.67995 6.23996,10.23993 11.75992,11.83992 4.31996,1.27999 8.07994,2.07998 8.07994,4.55996 v 0.08 c 0,1.75999 -1.43999,2.95998 -4.63997,2.95998 -3.67997,0 -8.15994,-1.59999 -12.39991,-4.71996 l -4.79996,7.35994 c 5.19996,4.07997 11.35991,5.91996 16.87987,5.91996 z m 35.43974,-0.08 c 3.75997,0 6.39995,-0.88 8.79993,-2.23999 v -8.95993 c -1.59998,0.87999 -3.43997,1.43999 -5.51995,1.43999 -2.47999,0 -3.59998,-1.27999 -3.59998,-3.83997 v -16.79988 h 9.27993 v -9.51993 h -9.27993 v -10.07992 h -11.11992 v 10.07992 h -4.71996 v 9.51993 h 4.71996 v 18.63986 c 0,9.11994 4.63997,11.75992 11.43992,11.75992 z m 34.63974,0.24 c 7.11995,0 12.39991,-2.79998 16.07988,-7.27995 l -6.39995,-5.67996 c -3.03998,2.87998 -5.75996,3.99997 -9.51993,3.99997 -4.95996,0 -8.47993,-2.63998 -9.59993,-7.67994 h 27.3598 c 0.08,-1.03999 0.16,-2.07999 0.16,-2.95998 0,-11.11992 -6.07996,-21.27984 -19.19986,-21.27984 -11.43991,0 -19.43985,9.19993 -19.43985,20.39985 v 0.16 c 0,12.07991 8.71993,20.31985 20.55984,20.31985 z m -9.59993,-23.59983 c 0.88,-5.03996 3.91998,-8.31994 8.47994,-8.31994 4.71997,0 7.67994,3.35998 8.31994,8.31994 z m 35.19974,22.71983 h 11.11992 v -21.91984 c 0,-5.27996 2.63998,-7.99994 6.79995,-7.99994 4.15997,0 6.47995,2.71998 6.47995,7.99994 v 21.91984 h 11.19992 v -21.91984 c 0,-5.27996 2.55998,-7.99994 6.71995,-7.99994 4.15997,0 6.55995,2.71998 6.55995,7.99994 v 21.91984 h 11.11992 v -25.59981 c 0,-9.43993 -4.95996,-14.39989 -13.2799,-14.39989 -5.35996,0 -9.43993,2.15998 -12.87991,6.23995 -2.07998,-3.99997 -5.99995,-6.23995 -11.11991,-6.23995 -5.59996,0 -8.95994,2.95998 -11.59992,6.31995 v -5.59996 h -11.11992 z m 83.11939,0.72 c 8.47994,0 15.03989,-3.91997 15.03989,-12.63991 v -0.16 c 0,-7.19995 -6.39996,-9.83993 -11.91991,-11.67991 -4.23997,-1.43999 -7.99995,-2.47998 -7.99995,-4.63997 v -0.16 c 0,-1.59998 1.43999,-2.71998 4.15997,-2.71998 2.79998,0 6.71995,1.35999 10.55993,3.67998 l 4.31996,-7.75995 c -4.31996,-2.79998 -9.67992,-4.47996 -14.71989,-4.47996 -7.91994,0 -14.31989,4.39996 -14.31989,12.39991 v 0.15999 c 0,7.67995 6.23995,10.23993 11.67991,11.83992 4.31997,1.27999 8.15994,2.07998 8.15994,4.55996 v 0.08 c 0,1.75999 -1.43999,2.95998 -4.71996,2.95998 -3.59998,0 -8.07994,-1.59999 -12.39991,-4.71996 l -4.71997,7.35994 c 5.19996,4.07997 11.35992,5.91996 16.87988,5.91996 z m 46.15966,-0.72 h 36.87972 v -10.23992 h -25.59981 v -41.0397 h -11.27991 z m 55.43959,0.72 c 5.35996,0 9.11993,-1.91999 11.83991,-4.95997 v 4.23997 h 10.79992 v -22.79983 c 0,-5.27996 -1.35999,-9.59993 -4.23997,-12.55991 -2.79998,-2.71998 -7.19995,-4.39996 -13.2799,-4.39996 -6.71995,0 -10.95992,1.27999 -15.27989,3.19997 l 2.79998,8.47994 c 3.59997,-1.27999 6.55995,-2.07998 10.87992,-2.07998 5.51996,0 8.39994,2.55998 8.39994,7.11994 v 0.72 c -2.79998,-0.96 -5.67996,-1.67999 -9.59993,-1.67999 -9.35993,0 -15.83988,3.99997 -15.83988,12.55991 v 0.16 c 0,7.75994 6.07995,11.99991 13.5199,11.99991 z m 3.35997,-7.67995 c -3.59997,0 -6.07995,-1.75998 -6.07995,-4.71996 v -0.16 c 0,-3.51997 2.87997,-5.43996 7.67994,-5.43996 2.71998,0 5.19996,0.56 7.11995,1.43999 v 1.99998 c 0,3.99997 -3.51998,6.87995 -8.71994,6.87995 z m 51.91962,7.67995 c 9.35993,0 17.91986,-7.11995 17.91986,-20.31985 v -0.08 c 0,-13.11991 -8.71993,-20.31985 -17.91986,-20.31985 -5.75996,0 -9.51993,2.71998 -12.23991,6.31995 v -19.83985 h -11.11992 v 53.5196 h 11.11992 v -5.11996 c 2.63998,3.11998 6.31995,5.83996 12.23991,5.83996 z m -2.87998,-9.43993 c -5.19996,0 -9.51993,-4.31997 -9.51993,-10.87992 v -0.08 c 0,-6.55995 4.31997,-10.87992 9.51993,-10.87992 5.19996,0 9.59993,4.31997 9.59993,10.87992 v 0.08 c 0,6.63995 -4.39997,10.87992 -9.59993,10.87992 z"
         id="path6161" />
      <path
         style="fill:#046e98;fill-opacity:1;fill-rule:nonzero;stroke:none"
         d="m 263.19805,404.477 h 36.87973 v -10.23992 h -25.59981 v -41.0397 h -11.27992 z m 44.07967,0 h 11.27992 v -51.27962 h -11.27992 z m 34.07975,0 h 11.35992 v -40.87969 h 15.59988 v -10.39993 h -42.55968 v 10.39993 h 15.59988 z m 75.83944,0.72 c 11.11992,0 18.87986,-5.67996 18.87986,-15.91988 v -0.08 c 0,-8.95994 -5.91996,-12.71991 -16.31988,-15.43989 -8.87993,-2.23998 -11.03992,-3.35997 -11.03992,-6.71995 v -0.16 c 0,-2.47998 2.23999,-4.47996 6.55995,-4.47996 4.31997,0 8.79994,1.91998 13.3599,5.03996 l 5.91996,-8.47994 c -5.27996,-4.15997 -11.59991,-6.55995 -19.11986,-6.55995 -10.47992,0 -17.91986,6.15995 -17.91986,15.51988 v 0.16 c 0,10.15993 6.63995,13.03991 16.95987,15.67989 8.63994,2.15998 10.39992,3.67997 10.39992,6.47995 v 0.16 c 0,3.03998 -2.79998,4.87996 -7.43994,4.87996 -5.83996,0 -10.71992,-2.47998 -15.35989,-6.23995 l -6.63995,7.99994 c 6.15996,5.43996 13.9999,8.15994 21.75984,8.15994 z m 45.35966,0.16 c 7.11995,0 12.39991,-2.79998 16.07988,-7.27995 l -6.39995,-5.67996 c -3.11997,2.87998 -5.83995,3.99997 -9.51993,3.99997 -5.03996,0 -8.55993,-2.63998 -9.59993,-7.67994 h 27.2798 c 0.08,-1.03999 0.16,-2.07998 0.16,-2.95998 0,-11.11992 -5.99996,-21.27984 -19.11986,-21.27984 -11.43991,0 -19.43985,9.19993 -19.43985,20.39985 v 0.16 c 0,12.07991 8.71993,20.31985 20.55984,20.31985 z m -9.59993,-23.59983 c 0.88,-5.03996 3.83998,-8.31994 8.47994,-8.31994 4.71997,0 7.59995,3.35998 8.31994,8.31994 z m 53.59961,23.59983 c 7.83994,0 12.23991,-2.95998 16.07988,-7.19995 l -6.55995,-6.55995 c -2.71998,2.55998 -5.27996,4.15997 -9.03994,4.15997 -6.07995,0 -9.91992,-4.79997 -9.91992,-10.87992 v -0.08 c 0,-5.83996 3.91997,-10.71992 9.51993,-10.71992 3.91997,0 6.39995,1.67999 8.95993,4.31997 l 6.79995,-7.35995 c -3.67997,-4.07997 -8.31994,-6.55995 -15.67988,-6.55995 -12.07991,0 -20.63985,9.19993 -20.63985,20.39985 v 0.16 c 0,11.27991 8.63994,20.31985 20.47985,20.31985 z m 34.87974,-0.16 c 5.67996,0 8.95993,-2.95998 11.51991,-6.23996 v 5.51996 h 11.19992 V 365.19729 H 552.9559 v 21.91984 c 0,5.27996 -2.71998,7.99994 -6.95994,7.99994 -4.23997,0 -6.71995,-2.71998 -6.71995,-7.99994 v -21.91984 h -11.11992 v 25.43982 c 0,9.03993 4.87996,14.55989 13.2799,14.55989 z m 32.31976,-0.72 h 11.11992 v -14.47989 c 0,-9.43993 4.55996,-13.9199 11.91991,-13.9199 h 0.63999 V 364.4773 c -6.63995,-0.32 -10.31992,3.19998 -12.5599,8.63994 v -7.91995 h -11.11992 z m 48.15964,0.88 c 7.03995,0 12.31991,-2.79998 15.99988,-7.27995 l -6.31995,-5.67996 c -3.11998,2.87998 -5.83996,3.99997 -9.59993,3.99997 -4.95996,0 -8.47993,-2.63998 -9.59993,-7.67994 h 27.3598 c 0.08,-1.03999 0.16,-2.07998 0.16,-2.95998 0,-11.11992 -5.99996,-21.27984 -19.11986,-21.27984 -11.43991,0 -19.43985,9.19993 -19.43985,20.39985 v 0.16 c 0,12.07991 8.71993,20.31985 20.55984,20.31985 z m -9.67993,-23.59983 c 0.88,-5.03996 3.91998,-8.31994 8.55994,-8.31994 4.63997,0 7.59995,3.35998 8.23994,8.31994 z m 69.11949,23.43983 c 5.43996,0 9.11994,-1.91999 11.83992,-4.95996 v 4.23996 h 10.79992 v -22.79983 c 0,-5.27996 -1.28,-9.59993 -4.23997,-12.5599 -2.79998,-2.71998 -7.19995,-4.39997 -13.2799,-4.39997 -6.63996,0 -10.95992,1.27999 -15.27989,3.19997 l 2.79998,8.47994 c 3.59997,-1.27999 6.63995,-2.07998 10.87992,-2.07998 5.59996,0 8.39993,2.55998 8.39993,7.11994 v 0.72 c -2.79997,-0.95999 -5.59995,-1.67999 -9.59992,-1.67999 -9.27994,0 -15.83989,3.99997 -15.83989,12.55991 v 0.16 c 0,7.75994 6.07996,11.99991 13.5199,11.99991 z m 3.35998,-7.67994 c -3.59998,0 -6.07996,-1.75999 -6.07996,-4.71997 v -0.16 c 0,-3.51997 2.95998,-5.43996 7.67995,-5.43996 2.71998,0 5.19996,0.56 7.11994,1.43999 v 1.99999 c 0,3.99997 -3.51997,6.87995 -8.71993,6.87995 z m 28.55979,6.95994 h 11.11991 v -21.91983 c 0,-5.27996 2.71998,-7.99994 6.95995,-7.99994 4.31997,0 6.79995,2.71998 6.79995,7.99994 V 404.477 h 11.11992 v -25.43981 c 0,-9.03993 -4.87996,-14.55989 -13.3599,-14.55989 -5.59996,0 -8.95993,2.95998 -11.51992,6.31995 v -5.59996 h -11.11991 z m 61.35954,0.72 c 5.83996,0 9.59993,-2.71998 12.31991,-6.31995 v 5.59995 h 11.11992 v -53.5196 h -11.11992 v 19.35986 c -2.63998,-3.11998 -6.31995,-5.83996 -12.31991,-5.83996 -9.27993,0 -17.83987,7.19995 -17.83987,20.31985 v 0.08 c 0,13.1999 8.71994,20.31985 17.83987,20.31985 z m 2.87998,-9.43993 c -5.19996,0 -9.59993,-4.31997 -9.59993,-10.87992 v -0.08 c 0,-6.63995 4.39997,-10.87992 9.59993,-10.87992 5.19996,0 9.51993,4.31997 9.51993,10.87992 v 0.08 c 0,6.55995 -4.31997,10.87992 -9.51993,10.87992 z m 77.75942,9.59993 c 9.91993,0 15.75989,-3.51998 21.03985,-9.11994 l -7.19995,-7.27994 c -3.99997,3.67997 -7.59994,5.99995 -13.5199,5.99995 -8.79993,0 -14.87989,-7.35994 -14.87989,-16.15988 v -0.08 c 0,-8.79993 6.23996,-15.99988 14.87989,-15.99988 5.19996,0 9.19993,2.15999 13.11991,5.75996 l 7.19994,-8.23994 c -4.71996,-4.71996 -10.55992,-7.91994 -20.23985,-7.91994 -15.75988,0 -26.7198,11.91991 -26.7198,26.4798 v 0.16 c 0,14.71989 11.19992,26.39981 26.3198,26.39981 z m 46.23966,0 c 12.23991,0 21.35984,-9.11994 21.35984,-20.47985 v -0.08 c 0,-11.35992 -9.03993,-20.31985 -21.19984,-20.31985 -12.23991,0 -21.35984,9.11993 -21.35984,20.39985 v 0.16 c 0,11.27991 9.03993,20.31985 21.19984,20.31985 z m 0.16,-9.59993 c -6.15995,0 -10.31992,-5.03996 -10.31992,-10.87992 v -0.08 c 0,-5.83996 3.83997,-10.71992 10.15992,-10.71992 6.15996,0 10.39993,5.03996 10.39993,10.79992 v 0.16 c 0,5.83995 -3.83998,10.71992 -10.23993,10.71992 z m 28.63979,8.71993 h 11.19992 v -14.47989 c 0,-9.43993 4.55996,-13.9199 11.91991,-13.9199 h 0.55999 V 364.4773 c -6.55995,-0.32 -10.23992,3.19998 -12.4799,8.63994 v -7.91995 h -11.19992 z m 29.59978,0 h 11.11992 v -14.47989 c 0,-9.43993 4.55996,-13.9199 11.99991,-13.9199 h 0.55999 V 364.4773 c -6.55995,-0.32 -10.23992,3.19998 -12.5599,8.63994 v -7.91995 h -11.11992 z m 48.15961,0.88 c 7.12,0 12.3999,-2.79998 16.0799,-7.27995 l -6.3999,-5.67996 c -3.04,2.87998 -5.76,3.99997 -9.52,3.99997 -4.9599,0 -8.47991,-2.63998 -9.5999,-7.67994 h 27.3598 c 0.08,-1.03999 0.16,-2.07998 0.16,-2.95998 0,-11.11992 -6.08,-21.27984 -19.1999,-21.27984 -11.43987,0 -19.43981,9.19993 -19.43981,20.39985 v 0.16 c 0,12.07991 8.71993,20.31985 20.55981,20.31985 z m -9.5999,-23.59983 c 0.88,-5.03996 3.92,-8.31994 8.4799,-8.31994 4.72,0 7.68,3.35998 8.32,8.31994 z m 53.5996,23.59983 c 7.8399,0 12.2399,-2.95998 16.0799,-7.19995 l -6.56,-6.55995 c -2.7199,2.55998 -5.2799,4.15997 -9.0399,4.15997 -6.08,0 -9.9199,-4.79997 -9.9199,-10.87992 v -0.08 c 0,-5.83996 3.9199,-10.71992 9.5199,-10.71992 3.92,0 6.48,1.67999 8.9599,4.31997 l 6.8,-7.35995 c -3.68,-4.07997 -8.3199,-6.55995 -15.6799,-6.55995 -11.9999,0 -20.6398,9.19993 -20.6398,20.39985 v 0.16 c 0,11.27991 8.6399,20.31985 20.4798,20.31985 z m 36.3997,-0.24 c 3.76,0 6.48,-0.87999 8.8,-2.23998 v -8.95994 c -1.6,0.88 -3.44,1.43999 -5.44,1.43999 -2.56,0 -3.6,-1.27999 -3.6,-3.83997 v -16.79988 h 9.2 v -9.51993 h -9.2 v -10.07992 h -11.1999 v 10.07992 h -4.6399 v 9.51993 h 4.6399 v 18.63987 c 0,9.11993 4.64,11.75991 11.4399,11.75991"
         id="path6163" />
    </g>
  </g>
</svg>
