<?xml version="1.0" encoding="UTF-8" standalone="no"?>
<!-- Created with Inkscape (http://www.inkscape.org/) -->

<svg
   width="324"
   height="192"
   viewBox="0 0 85.724963 50.800156"
   version="1.1"
   id="svg5"
   inkscape:version="1.1.2 (0a00cf5339, 2022-02-04, custom)"
   sodipodi:docname="logo_jku.svg"
   inkscape:export-filename="/home/daniel/Nextcloud-FAW/LNF/LNF2022/Stationsposter/keyboard_replay_lndf.png"
   inkscape:export-xdpi="96"
   inkscape:export-ydpi="96"
   xmlns:inkscape="http://www.inkscape.org/namespaces/inkscape"
   xmlns:sodipodi="http://sodipodi.sourceforge.net/DTD/sodipodi-0.dtd"
   xmlns:xlink="http://www.w3.org/1999/xlink"
   xmlns="http://www.w3.org/2000/svg"
   xmlns:svg="http://www.w3.org/2000/svg">
  <sodipodi:namedview
     id="namedview7"
     pagecolor="#ffffff"
     bordercolor="#666666"
     borderopacity="1.0"
     inkscape:pageshadow="2"
     inkscape:pageopacity="0.0"
     inkscape:pagecheckerboard="0"
     inkscape:document-units="mm"
     showgrid="false"
     inkscape:zoom="0.57979288"
     inkscape:cx="756.30456"
     inkscape:cy="251.81406"
     inkscape:window-width="2560"
     inkscape:window-height="1367"
     inkscape:window-x="1920"
     inkscape:window-y="0"
     inkscape:window-maximized="1"
     inkscape:current-layer="layer1"
     showguides="true"
     inkscape:guide-bbox="true"
     inkscape:snap-others="true"
     inkscape:snap-to-guides="true"
     inkscape:lockguides="true"
     scale-x="1"
     inkscape:snap-grids="true"
     units="px" />
  <defs
     id="defs2">
    <rect
       x="811.44214"
       y="1076.8684"
       width="211.64568"
       height="114.18742"
       id="rect82423" />
    <rect
       x="75.325737"
       y="1043.9327"
       width="117.14075"
       height="51.131168"
       id="rect216715" />
    <rect
       x="75.590553"
       y="1023.7111"
       width="469.71744"
       height="322.15485"
       id="rect137465" />
    <rect
       x="602.41187"
       y="157.96193"
       width="228.3811"
       height="22.713898"
       id="rect68814" />
    <rect
       x="342.16501"
       y="564.84875"
       width="841.2561"
       height="123.28933"
       id="rect26270" />
    <rect
       x="46.824043"
       y="339.36053"
       width="233.5854"
       height="126.24575"
       id="rect20934" />
    <rect
       x="-1853.052"
       y="195.11935"
       width="1204.4501"
       height="1050.7006"
       id="rect10094" />
    <rect
       x="-1761.8187"
       y="290.08878"
       width="1252.6501"
       height="820.72168"
       id="rect8922" />
    <rect
       x="-1951.5123"
       y="179.07204"
       width="1328.2354"
       height="761.52167"
       id="rect5272" />
    <rect
       x="75.590553"
       y="1023.7111"
       width="469.02032"
       height="120.77393"
       id="rect154677" />
    <rect
       x="75.590553"
       y="1023.7111"
       width="469.71744"
       height="322.15485"
       id="rect171995" />
    <rect
       x="75.590553"
       y="1023.7111"
       width="703.45355"
       height="130.96448"
       id="rect171995-9" />
    <rect
       x="75.590553"
       y="1023.7111"
       width="972.72803"
       height="73.344223"
       id="rect189780" />
    <rect
       x="75.590553"
       y="1023.7111"
       width="945.18976"
       height="90.865059"
       id="rect429789" />
    <rect
       x="75.590553"
       y="1023.7111"
       width="469.44382"
       height="100.13638"
       id="rect443541" />
    <style
       id="style12636">.cls-1{isolation:isolate;}.cls-2{mix-blend-mode:multiply;opacity:0.4;}.cls-3{fill:#aa0132;}.cls-4{fill:url(#linear-gradient);}.cls-5{fill:#fff;}.cls-6{fill:none;stroke:#aa002c;stroke-miterlimit:25.74;stroke-width:0.6px;}</style>
    <linearGradient
       id="linear-gradient"
       x1="10.59"
       y1="157"
       x2="495.82001"
       y2="157"
       gradientUnits="userSpaceOnUse">
      <stop
         offset="0.05"
         stop-color="#fd0"
         id="stop12638" />
      <stop
         offset="0.35"
         stop-color="#ffe019"
         id="stop12640" />
      <stop
         offset="0.53"
         stop-color="#ffe959"
         id="stop12642" />
      <stop
         offset="0.71"
         stop-color="#ffe019"
         id="stop12644" />
      <stop
         offset="0.98"
         stop-color="#fd0"
         id="stop12646" />
    </linearGradient>
    <pattern
       id="EMFhbasepattern"
       patternUnits="userSpaceOnUse"
       width="6"
       height="6"
       x="0"
       y="0" />
    <clipPath
       clipPathUnits="userSpaceOnUse"
       id="clipEmfPath1">
      <path
         d="M 0,793.67412 H 1122.4717 V 0 H 0 Z"
         id="path9167" />
    </clipPath>
    <pattern
       id="EMFhbasepattern-7"
       patternUnits="userSpaceOnUse"
       width="6"
       height="6"
       x="0"
       y="0" />
  </defs>
  <g
     inkscape:label="Ebene 1"
     inkscape:groupmode="layer"
     id="layer1">
    <text
       xml:space="preserve"
       transform="scale(0.26458333)"
       id="text5270"
       style="font-style:normal;font-variant:normal;font-weight:normal;font-stretch:normal;font-size:21.3333px;line-height:1.25;font-family:arial;-inkscape-font-specification:arial;letter-spacing:0px;word-spacing:0px;white-space:pre;shape-inside:url(#rect5272);fill:#000000;fill-opacity:1;stroke:none" />
    <text
       xml:space="preserve"
       transform="scale(0.26458333)"
       id="text8920"
       style="font-style:normal;font-variant:normal;font-weight:normal;font-stretch:normal;font-size:21.3333px;line-height:1.25;font-family:arial;-inkscape-font-specification:arial;letter-spacing:0px;word-spacing:0px;white-space:pre;shape-inside:url(#rect8922);fill:#000000;fill-opacity:1;stroke:none" />
    <text
       xml:space="preserve"
       transform="scale(0.26458333)"
       id="text20932"
       style="font-style:normal;font-variant:normal;font-weight:normal;font-stretch:normal;font-size:21.3333px;line-height:1.25;font-family:arial;-inkscape-font-specification:arial;letter-spacing:0px;word-spacing:0px;white-space:pre;shape-inside:url(#rect20934);fill:#000000;fill-opacity:1;stroke:none" />
    <text
       xml:space="preserve"
       transform="scale(0.26458333)"
       id="text68812"
       style="font-style:normal;font-variant:normal;font-weight:normal;font-stretch:normal;font-size:21.3333px;line-height:1.25;font-family:arial;-inkscape-font-specification:arial;letter-spacing:0px;word-spacing:0px;white-space:pre;shape-inside:url(#rect68814);fill:#000000;fill-opacity:1;stroke:none" />
    <g
       id="g116269"
       transform="matrix(2.5575312,-0.84385551,0.84385551,2.5575312,-156.26158,172.48744)"
       style="display:none">
      <g
         id="g115362"
         transform="translate(92.246388,78.116662)">
        <text
           xml:space="preserve"
           style="font-style:normal;font-variant:normal;font-weight:normal;font-stretch:normal;font-size:2.11667px;line-height:1.25;font-family:arial;-inkscape-font-specification:arial;letter-spacing:0px;word-spacing:0px;fill:#000000;fill-opacity:1;stroke:none;stroke-width:0.264583"
           id="text97945"
           transform="translate(36.205043,3.8878423)"><textPath
             xlink:href="#path96227-3"
             id="textPath108280"><tspan
               id="tspan97943"
               style="font-size:2.11667px;stroke-width:0.264583" /></textPath></text>
        <path
           style="fill:none;stroke:none;stroke-width:0.690309;stroke-miterlimit:4;stroke-dasharray:none;stroke-opacity:1;paint-order:normal"
           id="path96227-3"
           sodipodi:type="arc"
           sodipodi:cx="-57.320976"
           sodipodi:cy="-213.37529"
           sodipodi:rx="9.9268866"
           sodipodi:ry="9.1194382"
           sodipodi:start="5.5227049"
           sodipodi:end="1.0643011"
           sodipodi:arc-type="slice"
           d="m -50.128898,-219.66104 a 9.9268866,9.1194382 0 0 1 2.620488,7.66577 9.9268866,9.1194382 0 0 1 -4.99688,6.59447 l -4.815686,-7.97449 z"
           transform="matrix(-0.99847491,0.05520735,-0.07728353,-0.99700916,0,0)" />
      </g>
    </g>
    <text
       xml:space="preserve"
       style="font-size:5.64444px;line-height:1.25;font-family:arial;-inkscape-font-specification:arial;text-align:center;letter-spacing:0px;word-spacing:0px;text-anchor:middle;stroke-width:0.264583"
       x="20.299997"
       y="366.39999"
       id="text71827"><tspan
         sodipodi:role="line"
         id="tspan71825"
         style="stroke-width:0.264583"
         x="20.299997"
         y="366.39999" /></text>
    <g
       id="g9189"
       transform="matrix(0.07847207,0,0,0.07847207,1.3937096,5.3382743)"
       style="fill:#000000;fill-opacity:1">
      <path
         style="fill:#000000;fill-opacity:1;fill-rule:nonzero;stroke:none"
         clip-path="url(#clipEmfPath1)"
         d="m 734.87456,281.99791 c 79.43941,0 129.67904,-43.91967 129.67904,-133.51901 V 8.8799342 H 799.51408 V 151.03888 c 0,46.87965 -24.07982,70.95948 -63.83953,70.95948 -39.67971,0 -63.75953,-24.87982 -63.75953,-73.03946 V 8.8799342 H 606.79551 V 150.63888 c 0,87.03936 48.63963,131.35903 128.07905,131.35903 z M 147.67891,172.15872 c 0,34.23975 -15.19989,49.03964 -39.67971,49.03964 -20.719847,0 -37.199724,-10.95992 -54.079599,-29.59978 l -41.039696,45.67966 c 20.319849,24.07982 50.719624,44.31967 96.799285,44.31967 32.07976,0 58.71956,-9.27993 76.87943,-27.43979 17.75987,-17.75987 27.91979,-43.91968 27.91979,-79.03942 V 8.8799342 h -66.7995 z M 558.55586,8.7999348 410.63696,135.519 262.79805,8.7999348 V 86.959356 L 410.63696,213.67842 558.55586,86.959356 Z m 0,204.8784852 H 410.63696 262.79805 v 64.23952 h 295.75781 z"
         id="path9173" />
      <path
         style="fill:#000000;fill-opacity:1;fill-rule:nonzero;stroke:none"
         clip-path="url(#clipEmfPath1)"
         d="m 286.63788,482.31643 c 14.07989,0 22.95983,-7.75995 22.95983,-23.59983 v -29.51978 h -11.51992 v 29.91978 c 0,8.31994 -4.23997,12.55991 -11.27991,12.55991 -7.03995,0 -11.27992,-4.39997 -11.27992,-12.87991 v -29.59978 h -11.51992 v 29.83978 c 0,15.43989 8.63994,23.27983 22.63984,23.27983 z m 37.59972,-0.88 h 11.35991 v -33.19975 l 25.27982,33.19975 h 9.75992 v -52.23961 h -11.35991 v 32.15976 L 334.79752,429.19682 H 324.2376 Z m 62.39954,0 h 11.51991 v -52.23961 h -11.51991 z m 44.15967,0.4 h 10.07992 l 21.19985,-52.63961 h -12.39991 l -13.6799,36.79973 -13.6799,-36.79973 h -12.7199 z m 42.23969,-0.4 h 39.7597 v -10.15992 h -28.31979 v -11.03992 h 24.63982 v -10.15992 h -24.63982 v -10.63993 h 27.99979 v -10.23992 h -39.4397 z m 52.9596,0 h 11.43992 v -16.71987 h 8.87993 0.16 l 11.19992,16.71987 h 13.4399 l -12.71991,-18.63986 c 6.63995,-2.47998 11.19992,-7.75994 11.19992,-16.15988 v -0.16 c 0,-4.95996 -1.59999,-9.03993 -4.47997,-11.99991 -3.43997,-3.43997 -8.63993,-5.27996 -15.27988,-5.27996 H 525.9961 Z m 11.43992,-26.8798 v -14.95989 h 11.43991 c 5.59996,0 9.03994,2.55998 9.03994,7.43995 v 0.16 c 0,4.39996 -3.19998,7.35994 -8.79994,7.35994 z m 63.99952,27.6798 c 11.27992,0 19.19986,-5.83996 19.19986,-16.23988 v -0.16 c 0,-9.03993 -5.99995,-12.87991 -16.55987,-15.67988 -9.03994,-2.31999 -11.27992,-3.43998 -11.27992,-6.79995 v -0.16 c 0,-2.55998 2.31998,-4.55997 6.71995,-4.55997 4.39997,0 8.95993,1.91999 13.5999,5.11996 l 5.91995,-8.63993 c -5.27996,-4.23997 -11.75991,-6.63995 -19.35985,-6.63995 -10.71992,0 -18.31987,6.23995 -18.31987,15.75988 v 0.16 c 0,10.31992 6.79995,13.2799 17.35988,15.91988 8.71993,2.23998 10.47992,3.75997 10.47992,6.63995 v 0.16 c 0,3.11998 -2.79998,4.95996 -7.51995,4.95996 -5.99995,0 -10.87992,-2.47998 -15.59988,-6.31995 l -6.79995,8.07994 c 6.23995,5.59996 14.23989,8.39994 22.15983,8.39994 z m 32.63976,-0.8 h 11.51992 V 429.19682 H 634.0753 Z m 39.67971,0 h 11.43991 v -41.59969 h 15.91989 v -10.63992 h -43.27968 v 10.63992 h 15.91988 z m 34.63974,0 h 11.67992 l 4.79996,-11.67991 h 22.07984 l 4.79996,11.67991 h 11.99991 l -22.39983,-52.63961 h -10.55992 z m 20.55985,-21.83983 6.95995,-16.95988 6.95995,16.95988 z m 9.67993,-34.47975 h 10.87992 v -10.07992 h -10.87992 z m -15.99988,0 h 10.87992 v -10.07992 h -10.87992 z m 64.31952,56.31958 h 11.43992 v -41.59969 h 15.91988 v -10.63992 h -43.27968 v 10.63992 h 15.91988 z m 64.39952,0 h 37.51973 v -10.39992 h -25.99981 v -41.83969 h -11.51992 z m 49.67964,0 h 11.43991 v -52.23961 h -11.43991 z m 27.43979,0 h 11.35992 v -33.19975 l 25.27981,33.19975 h 9.83993 v -52.23961 h -11.35992 v 32.15976 l -24.47982,-32.15976 h -10.63992 z m 60.31956,0 h 43.51972 v -10.07992 h -28.7198 l 28.7198,-33.43975 v -8.71994 h -42.63973 v 10.07993 h 27.91983 l -28.79982,33.43975 z"
         id="path9175" />
      <path
         style="fill:#000000;fill-opacity:1;fill-rule:nonzero;stroke:none"
         clip-path="url(#clipEmfPath1)"
         d="m 276.71795,404.877 c 5.67996,0 10.39992,-1.59999 13.5999,-4.87996 3.11998,-3.11998 4.95996,-7.75995 4.95996,-13.9199 V 351.83739 H 283.4379 v 33.67975 c 0,6.07996 -2.71998,8.71994 -7.03995,8.71994 -3.59997,0 -6.55995,-1.99999 -9.51993,-5.27996 l -7.27994,8.07994 c 3.59997,4.23997 8.95993,7.83994 17.11987,7.83994 z m 55.59959,0.16 c 16.15988,0 27.91979,-12.15991 27.91979,-27.0398 v -0.16 c 0,-14.79989 -11.59991,-26.8798 -27.75979,-26.8798 -16.07988,0 -27.8398,12.15991 -27.8398,27.0398 v 0.16 c 0,14.87989 11.59992,26.8798 27.6798,26.8798 m 0.16,-10.63992 c -9.19993,0 -15.83989,-7.43995 -15.83989,-16.39988 v -0.16 c 0,-8.95993 6.47996,-16.23988 15.67989,-16.23988 9.27993,0 15.83988,7.43995 15.83988,16.39988 v 0.16 c 0,8.95993 -6.39995,16.23988 -15.67988,16.23988 z m 37.91972,9.75993 h 11.51991 v -20.95985 h 21.19984 v 20.95985 h 11.51992 v -52.31962 h -11.51992 v 20.71985 h -21.19984 v -20.71985 h -11.51991 z m 52.31961,0 h 11.67991 l 4.79997,-11.75992 h 22.07983 l 4.79997,11.75992 h 11.99991 L 455.67662,351.5174 H 445.1167 Z m 20.55985,-21.91984 6.95994,-16.95988 6.95995,16.95988 z m 42.87968,21.91984 h 11.35991 v -33.27976 l 25.27982,33.27976 h 9.83992 v -52.31962 h -11.35991 v 32.23976 L 496.79632,351.83739 H 486.1564 Z m 58.95956,0 h 11.35992 v -33.27976 l 25.35981,33.27976 h 9.75993 V 351.83739 H 580.2357 v 32.23976 l -24.47982,-32.23976 h -10.63992 z m 59.03956,0 h 39.75971 v -10.23993 h -28.31979 v -10.95992 h 24.63982 v -10.23992 h -24.63982 v -10.63992 h 27.99979 v -10.23993 h -39.43971 z m 68.5595,0.71999 c 11.27991,0 19.19985,-5.83996 19.19985,-16.15988 v -0.16 c 0,-9.11993 -5.91995,-12.9599 -16.55987,-15.67988 -9.03994,-2.31998 -11.27992,-3.43998 -11.27992,-6.87995 v -0.16 c 0,-2.55998 2.31998,-4.55997 6.71995,-4.55997 4.39997,0 8.95993,1.91999 13.5999,5.11997 l 5.99996,-8.63994 c -5.35996,-4.23997 -11.83992,-6.63995 -19.43986,-6.63995 -10.63992,0 -18.31986,6.31995 -18.31986,15.75988 v 0.16 c 0,10.39992 6.79995,13.2799 17.35987,15.99988 8.71993,2.23999 10.55992,3.67998 10.55992,6.63995 v 0.16 c 0,3.03998 -2.87998,4.87997 -7.59994,4.87997 -5.91996,0 -10.87992,-2.47999 -15.59989,-6.31996 l -6.79995,8.15994 c 6.31995,5.59996 14.31989,8.31994 22.15984,8.31994 z m 51.59961,-0.71999 h 11.51992 v -15.99989 l 6.07995,-6.23995 16.15988,22.23984 h 13.8399 l -22.23983,-30.07978 21.27984,-22.23984 h -13.9199 l -21.19984,22.87983 v -22.87983 h -11.51992 z m 54.5596,0 h 39.75971 v -10.23993 h -28.39979 v -10.95992 h 24.63981 v -10.23992 h -24.63981 v -10.63992 h 27.99979 v -10.23993 h -39.35971 z m 49.99963,0 h 11.51991 v -15.67989 h 8.71994 c 11.67991,0 21.11984,-6.31995 21.11984,-18.39986 v -0.16 c 0,-10.63992 -7.51994,-18.07987 -19.99985,-18.07987 h -21.35984 z m 11.51991,-25.91981 v -15.99988 h 8.87994 c 5.75996,0 9.27993,2.79998 9.27993,7.91994 v 0.16 c 0,4.47996 -3.35997,7.91994 -9.03993,7.91994 z m 38.31972,25.91981 h 37.59972 v -10.47993 h -26.0798 v -41.83969 h -11.51992 z m 46.23966,0 h 39.8397 v -10.23993 h -28.39979 v -10.95992 h 24.63982 v -10.23992 h -24.63982 v -10.63992 h 27.9998 v -10.23993 h -39.43971 z m 50.07963,0 h 11.43991 v -16.71988 h 8.87994 0.16 l 11.19987,16.71988 h 13.4399 l -12.7199,-18.71987 c 6.64,-2.39998 11.2,-7.75994 11.2,-16.15988 v -0.15999 c 0,-4.95997 -1.6,-9.03994 -4.48,-11.91992 -3.44,-3.43997 -8.6399,-5.35996 -15.2799,-5.35996 h -23.83982 z m 11.43991,-26.8798 v -15.03989 h 11.43992 c 5.59999,0 9.03989,2.55998 9.03989,7.51994 v 0.08 c 0,4.39997 -3.1999,7.43995 -8.79989,7.43995 z"
         id="path9177" />
    </g>
  </g>
</svg>
